#!OML:ASF H:\Terrain\Patient Classification 1\PLAYGROUND\JustinFriday\JustinFriday.ASF
:FULLY-SPECIFIED
:DEGREES
1316
root 13.1081 21.8092 14.0944 112.192 5.53013 -178.506
lowerback 43.0768 -1.2595 2.55112
upperback 4.28444 2.39868 2.59919
thorax -15.8494 1.89082 0.116327
lowerneck 9.81909 -0.446982 -8.20877
upperneck 21.3365 -5.16413 5.40238
head 5.17294 -4.2777 2.89281
rclavicle 1.97791e-014 2.42517e-014
rhumerus 81.7859 0.00586119 -63.8811
rradius 46.4213
rwrist 37.4989
rhand -14.602 -20.6176
rfingers 7.12502
rthumb 11.5486 -410.279
lclavicle 1.97791e-014 2.42517e-014
lhumerus 80.096 7.6616 62.9759
lradius 34.9293
lwrist -41.7583
lhand -17.8271 -14.8663
lfingers 7.12502
lthumb 8.43723 14.9452
rfemur -70.7355 0.349076 33.3151
rtibia 90.6459
rfoot -22.7864 -6.49296
rtoes 5.37021
lfemur -78.6484 11.2571 -20.829
ltibia 79.684
lfoot -21.4848 -7.77202
ltoes -12.0532
1317
root 13.1035 21.7688 14.3434 113.152 5.65647 -178.283
lowerback 43.1549 -1.34718 2.78881
upperback 4.33139 2.43586 2.60812
thorax -15.8096 1.90688 -0.0182747
lowerneck 9.45067 -0.540123 -8.21242
upperneck 21.4092 -5.22845 5.3607
head 5.25813 -4.28747 2.87096
rclavicle -4.87022e-015 5.96354e-016
rhumerus 81.8568 -0.181126 -63.9126
rradius 46.6492
rwrist 37.6019
rhand -15.2648 -20.5651
rfingers 7.12502
rthumb 10.9094 -410.262
lclavicle -4.87022e-015 5.96354e-016
lhumerus 80.3533 7.66889 63.0925
lradius 35.1017
lwrist -42.0914
lhand -18.5154 -14.6923
lfingers 7.12502
lthumb 7.77294 15.1448
rfemur -70.6262 0.439258 33.2396
rtibia 87.9485
rfoot -21.6491 -5.4516
rtoes 5.47263
lfemur -78.1129 11.3169 -20.7564
ltibia 76.7719
lfoot -19.861 -10.2023
ltoes -6.61811
1318
root 13.0949 21.7215 14.6834 114.336 5.8107 -178.177
lowerback 42.8955 -1.41867 3.07543
upperback 4.45335 2.47771 2.58891
thorax -15.5664 1.92342 -0.204
lowerneck 9.18151 -0.604859 -8.39777
upperneck 21.1454 -5.22187 5.48003
head 5.22325 -4.24018 2.93915
rclavicle -9.93923e-016 1.41137e-014
rhumerus 82.1826 -0.383607 -64.0151
rradius 46.7761
rwrist 37.6396
rhand -16.0613 -20.4386
rfingers 7.12502
rthumb 10.1411 -410.174
lclavicle -9.93923e-016 1.41137e-014
lhumerus 80.6767 7.85123 63.1826
lradius 35.357
lwrist -42.3442
lhand -19.1626 -14.532
lfingers 7.12502
lthumb 7.14822 15.3273
rfemur -70.2695 0.505497 33.2088
rtibia 84.7663
rfoot -20.2298 -4.82548
rtoes 5.79207
lfemur -78.3281 11.1893 -19.7103
ltibia 73.9913
lfoot -14.8801 -14.3821
ltoes 2.26913
1319
root 13.0854 21.6878 14.9328 115.627 5.7422 -178.043
lowerback 42.4914 -1.47469 3.16622
upperback 4.6681 2.45389 2.59061
thorax -15.1743 1.93587 -0.230681
lowerneck 8.86746 -0.609539 -8.80867
upperneck 20.7692 -5.14186 5.84202
head 5.16348 -4.147 3.12537
rclavicle 7.7526e-015 2.64384e-014
rhumerus 82.756 -0.590786 -64.2402
rradius 46.8939
rwrist 37.9526
rhand -16.6981 -20.2534
rfingers 7.12502
rthumb 9.52667 -410.018
lclavicle 7.7526e-015 2.64384e-014
lhumerus 81.1842 8.16447 63.3396
lradius 35.441
lwrist -42.5983
lhand -19.9408 -14.3947
lfingers 7.12502
lthumb 6.39694 15.4887
rfemur -70.4848 0.609004 32.9412
rtibia 82.0418
rfoot -18.5879 -4.43498
rtoes 5.72161
lfemur -77.848 11.0514 -19.853
ltibia 70.7332
lfoot -13.2154 -14.7014
ltoes -2.72474
1320
root 13.0701 21.6819 15.0374 116.916 5.48601 -177.953
lowerback 42.3138 -1.43994 2.99567
upperback 4.73806 2.4222 2.61233
thorax -15.0408 1.94009 -0.100286
lowerneck 8.72353 -0.652076 -9.04362
upperneck 20.3607 -5.089 5.92979
head 5.06136 -4.0767 3.19623
rclavicle 8.15017e-015 3.18055e-015
rhumerus 83.2273 -0.735225 -64.243
rradius 46.9143
rwrist 38.1528
rhand -17.3505 -20.1672
rfingers 7.12502
rthumb 8.89708 -409.96
lclavicle 8.15017e-015 3.18055e-015
lhumerus 81.5412 8.40533 63.2669
lradius 35.3462
lwrist -42.663
lhand -20.8616 -14.181
lfingers 7.12502
lthumb 5.508 15.7274
rfemur -70.5427 0.624122 32.7389
rtibia 79.3536
rfoot -16.5876 -5.54506
rtoes -0.378766
lfemur -77.5388 11.1076 -21.2029
ltibia 67.6008
lfoot -15.071 -12.1936
ltoes -21.1065
1321
root 13.0599 21.6494 15.3411 118.168 5.16081 -177.94
lowerback 42.286 -1.4231 2.86988
upperback 4.74609 2.36643 2.49541
thorax -15.0203 1.92174 -0.137111
lowerneck 8.58525 -0.780428 -8.94392
upperneck 20.0827 -5.14468 5.80832
head 4.99728 -4.06049 3.13958
rclavicle -4.96962e-016 1.39149e-015
rhumerus 83.609 -0.975767 -64.2708
rradius 46.8976
rwrist 38.0671
rhand -18.2587 -20.0947
rfingers 7.12502
rthumb 8.02069 -409.922
lclavicle -4.96962e-016 1.39149e-015
lhumerus 81.8733 8.48879 63.4046
lradius 35.5055
lwrist -42.9923
lhand -21.6001 -14.0284
lfingers 7.12502
lthumb 4.79496 15.8974
rfemur -70.6771 0.71821 31.9232
rtibia 76.5105
rfoot -15.1056 -3.89656
rtoes 5.30382
lfemur -76.9418 10.9495 -21.2882
ltibia 64.1269
lfoot -12.4294 -14.0294
ltoes -20.8347
1322
root 13.0374 21.6364 15.5529 119.471 5.19181 -177.733
lowerback 42.0943 -1.54966 3.17558
upperback 4.85598 2.34605 2.42856
thorax -14.812 1.91284 -0.356528
lowerneck 8.33898 -0.844302 -8.87303
upperneck 19.8985 -5.1409 5.85594
head 4.97765 -4.01229 3.14063
rclavicle 9.44227e-015 2.80286e-014
rhumerus 84.0331 -1.28516 -64.4399
rradius 47.0255
rwrist 38.0704
rhand -19.0707 -19.9026
rfingers 7.12502
rthumb 7.23692 -409.759
lclavicle 9.44227e-015 2.80286e-014
lhumerus 82.3398 8.66039 63.7337
lradius 35.7802
lwrist -43.4746
lhand -22.2339 -13.9587
lfingers 7.12502
lthumb 4.18287 15.9799
rfemur -70.2176 0.49257 32.1636
rtibia 73.3879
rfoot -13.1094 -4.57304
rtoes -0.57597
lfemur -76.7526 10.9238 -21.1807
ltibia 61.0307
lfoot -10.9755 -14.8454
ltoes -23.9162
1323
root 13.0272 21.6217 15.8132 120.92 5.33742 -177.507
lowerback 41.7097 -1.57283 3.37949
upperback 4.94149 2.39886 2.51289
thorax -14.5804 1.93348 -0.386607
lowerneck 8.30063 -0.827517 -8.89263
upperneck 19.5794 -5.0387 5.8983
head 4.87745 -3.92438 3.16278
rclavicle -2.05742e-014 -4.37326e-015
rhumerus 84.4123 -1.46209 -64.5946
rradius 47.1836
rwrist 38.3144
rhand -19.6661 -19.629
rfingers 7.12502
rthumb 6.6622 -409.504
lclavicle -2.05742e-014 -4.37326e-015
lhumerus 82.7811 8.91501 63.9182
lradius 35.7576
lwrist -43.7766
lhand -23.0392 -13.8564
lfingers 7.12502
lthumb 3.4052 16.0962
rfemur -70.5255 0.402005 32.2556
rtibia 70.2205
rfoot -10.7085 -3.53585
rtoes 3.46476
lfemur -76.4587 10.9181 -20.9187
ltibia 58.3772
lfoot -11.2306 -14.3504
ltoes -29.0175
1324
root 13.0179 21.6068 16.0763 122.851 5.36059 -177.52
lowerback 40.6953 -1.36441 3.26421
upperback 4.98164 2.495 2.65514
thorax -14.2045 1.96022 -0.192049
lowerneck 7.90822 -0.851253 -9.039
upperneck 19.6669 -4.98675 5.74304
head 4.9653 -3.89112 3.13164
rclavicle -1.59028e-015 -1.66979e-014
rhumerus 84.8228 -1.49756 -64.6736
rradius 47.2565
rwrist 38.5751
rhand -20.3398 -19.4307
rfingers 7.12502
rthumb 6.01175 -409.325
lclavicle -1.59028e-015 -1.66979e-014
lhumerus 83.1884 9.16171 64.2248
lradius 35.6292
lwrist -44.1241
lhand -23.9061 -13.7166
lfingers 7.12502
lthumb 2.56801 16.2477
rfemur -71.2089 0.471202 32.3251
rtibia 67.1803
rfoot -8.46203 -3.12763
rtoes 3.78262
lfemur -76.8581 10.8091 -20.3275
ltibia 55.4525
lfoot -8.68945 -14.7021
ltoes -28.0872
1325
root 12.9761 21.6375 16.019 124.758 5.20685 -177.412
lowerback 39.8016 -1.3048 3.28836
upperback 4.97816 2.45634 2.66067
thorax -13.9009 1.91915 -0.160449
lowerneck 7.32123 -0.915038 -9.10615
upperneck 19.9448 -5.00021 5.639
head 5.14797 -3.88846 3.09668
rclavicle -1.46107e-014 1.05356e-014
rhumerus 85.239 -1.64606 -64.7449
rradius 47.1601
rwrist 38.582
rhand -21.2289 -19.3296
rfingers 7.12502
rthumb 5.15338 -409.247
lclavicle -1.46107e-014 1.05356e-014
lhumerus 83.6267 9.32416 64.5148
lradius 35.6462
lwrist -44.5381
lhand -24.6582 -13.5914
lfingers 7.12502
lthumb 1.8417 16.3804
rfemur -70.3349 -0.188113 33.7989
rtibia 63.7613
rfoot 2.29447 -7.56061
rtoes -35.8554
lfemur -78.0128 10.7362 -20.5617
ltibia 53.7695
lfoot -8.99132 -12.9652
ltoes -32.6973
